<?xml version="1.0" encoding="utf-8"?>
<!-- Generator: Adobe Illustrator 23.0.5, SVG Export Plug-In . SVG Version: 6.00 Build 0)  -->
<svg version="1.1" id="Capa_1" xmlns="http://www.w3.org/2000/svg" xmlns:xlink="http://www.w3.org/1999/xlink" x="0px" y="0px"
	 viewBox="0 0 138 130" style="enable-background:new 0 0 138 130;" xml:space="preserve">
<style type="text/css">
	.st0{fill:#FFFFFF;stroke:#000000;stroke-miterlimit:10;}
</style>
<g>
	<path class="st0" d="M53.2,71.6l1.7,5.8c0.1,0.3,0.4,0.6,0.8,0.6c11.3,0,22.6,0,33.8,0c5,0,4.6,4.8,1.1,4.8c-12.3,0-24.4,0-36.5,0
		c-1.4,0-2.6-0.9-2.9-2.2l-12.3-46C38.6,34.2,38.4,34,38,34l-10.8,0c-0.8,0-1.5-0.5-1.8-1.3c-0.3-1-0.1-2,0.8-2.7
		c0.2-0.2,0.4-0.2,0.6-0.2h12.9c1.4,0,2.5,0.9,2.9,2.2l1.4,5.5c0.1,0.4,0.3,0.5,0.7,0.5H99c1.5,0,2.7,1.2,2.7,2.7
		c0,0.2,0,0.4-0.1,0.6L94.9,69c-0.3,1.2-1.3,2-2.6,2H53.6C53.2,71,53.1,71.2,53.2,71.6z M56.7,42.9c0-0.2-0.2-0.3-0.3-0.3H45.9
		c-0.2,0-0.4,0.2-0.4,0.3c0,0,0,0.1,0,0.1l2.5,9c0,0.2,0.2,0.3,0.3,0.3l8.6,0c0.2,0,0.3-0.2,0.3-0.4c0,0,0,0,0,0L56.7,42.9z
		 M69.6,42.4l-8.3,0.4c-0.1,0-0.2,0.1-0.2,0.3l0.1,1.1c0.2,4.6,0.7,8.3,1.2,8.3l7.2-0.4c0.4,0,0.6-3.8,0.4-8.4l-0.1-1.1
		C69.9,42.5,69.8,42.4,69.6,42.4C69.6,42.4,69.6,42.4,69.6,42.4z M83.2,43c0-0.2-0.1-0.4-0.3-0.4c0,0,0,0,0,0l-8.2,0
		c-0.2,0-0.4,0.2-0.4,0.4l0,0v9c0,0.2,0.2,0.4,0.4,0.4c0,0,0,0,0,0l7.2,0c0.2,0,0.3-0.1,0.4-0.3L83.2,43z M96.6,43
		c0-0.2-0.1-0.4-0.3-0.4c0,0-0.1,0-0.1,0h-8.4c-0.2,0-0.3,0.1-0.3,0.3l-0.8,9c0,0.2,0.1,0.4,0.3,0.4c0,0,0,0,0,0h7.1
		c0.2,0,0.3-0.1,0.3-0.3L96.6,43z M57.9,57c0-0.2-0.2-0.3-0.3-0.3l-7.8,0c-0.2,0-0.3,0.1-0.3,0.3c0,0,0,0.1,0,0.1l2.4,9.3
		c0,0.1,0.2,0.2,0.3,0.2h6.8c0.2,0,0.3-0.1,0.3-0.3c0,0,0,0,0,0L57.9,57z M70,57.1c0-0.2-0.1-0.3-0.3-0.3l-6.7,0
		c-0.2,0-0.3,0.1-0.3,0.3c0,0,0,0,0,0l0.8,9.3c0,0.2,0.2,0.3,0.3,0.3h6c0.2,0,0.3-0.1,0.3-0.3L70,57.1z M81.6,57.1
		c0-0.2-0.1-0.3-0.3-0.4c0,0,0,0,0,0l-6.6,0c-0.2,0-0.3,0.1-0.3,0.3v9.3c0,0.2,0.1,0.3,0.3,0.3l0,0h5.9c0.2,0,0.3-0.1,0.3-0.3
		L81.6,57.1z M93.3,57.2c0-0.2-0.1-0.4-0.2-0.4c0,0-0.1,0-0.1,0l-6.4,0c-0.2,0-0.3,0.1-0.3,0.3l-1.1,9.3c0,0.2,0.1,0.4,0.3,0.4
		c0,0,0,0,0,0h5.1c0.2,0,0.3-0.1,0.3-0.3L93.3,57.2z"/>
	<circle class="st0" cx="57.3" cy="89.4" r="4.6"/>
	<circle class="st0" cx="85.8" cy="89.4" r="4.6"/>
</g>
</svg>
