<?xml version="1.0" encoding="utf-8"?>
<!-- Generator: Adobe Illustrator 23.0.5, SVG Export Plug-In . SVG Version: 6.00 Build 0)  -->
<svg version="1.1" id="Capa_1" xmlns="http://www.w3.org/2000/svg" xmlns:xlink="http://www.w3.org/1999/xlink" x="0px" y="0px"
	 viewBox="0 0 2740 764" style="enable-background:new 0 0 2740 764;" xml:space="preserve">
<style type="text/css">
	.st0{fill:#32714F;}
</style>
<path class="st0" d="M1208.8,583.4c0.2,12.4,0.5,24.8,1,37.1c0.8,19.2,0.8,35.9,16.2,49.7c10.5,9.3,19.3,15.5,26.6,25.2
	c10.3,13.7,0.3,22.6-12.7,26.3c-5.6,1.6-12.7,2.6-21.3,3c-35.6,1.5-71.1,0.9-106.6-1.8c-12.1-0.9-23.1-2.3-33-4.2
	c-3.4-0.6-7-1.9-11-3.8c-12.6-5.9-6.6-17.4,0.4-24.8c7-7.4,11.4-12.1,13.3-14.3c11.6-13.1,17.6-29,18.1-47.7
	c0.4-16.2,0.5-27.6,0.2-34c-1-23.6-2-47.2-2.9-70.8c-1.4-34.8-0.4-71.3-0.3-107c0-20.9-2.8-42.2-14-60.4
	c-11.6-18.8-28.5-28.4-50.8-28.6c-30.6-0.4-65.6,20.2-79.7,47c-1.9,3.6-3,6.5-2.6,10.8c4.2,57.7,3.8,114.4,4.5,171.7
	c0.2,18.8,1,37.5,2.1,56.2c0.6,10.1,1.8,20.2,3.5,30.2c4,24,22.5,33,37.6,48.6c7.6,7.9,13.9,20.3,2.3,28.4
	c-7.3,5.1-19.3,6.2-28.1,7.2c-2.9,0.3-9,0.8-18.3,1.4c-43,2.9-87.5,3-129.6-4.6c-7.4-1.3-18.2-4.3-23-10.5
	c-9.6-12.4,8.6-24.4,16.8-30.2c9.7-6.8,19.4-14.9,25.1-24.9c7.8-13.8,9.8-31,10.7-46.6c1.4-23.3,2.4-46.6,2.9-70
	c1.3-62.3,0.5-124.5-2.3-186.7c-0.4-9-1.5-19.7-5.1-28.1c-0.1-0.3-0.4-0.5-0.7-0.5c-13.7-1.8-27-3.7-40-8.5c-0.4-0.2-0.5,0-0.3,0.4
	c32,55.2,45.9,114.8,41.6,179c-2.8,41.2-12.4,87.8-30.3,125.8c-15.2,32.2-39.2,61.6-66.5,84.2c-18.7,15.5-39.9,25.3-63.5,29.3
	c-5.3,0.9-11.9,1.6-19.9,2c-25.2,1.4-50.2,0.5-75.2-2.7c-29.3-3.7-55.2-15.2-77-35c-27.5-25-49.9-57.8-63.7-91.9
	c-8.5-20.8-14.5-43.6-18.7-66.2c-11.2-61.1-4.2-122.4,17.5-180.4c1.1-3,2.9-8.3,5.5-15.9c5.8-17.5,14.6-33.4,26.3-47.6
	c23-28,52.3-52.4,85.5-67.4c42.5-19.2,97.8-15.6,140.7,0.3c34.2,12.7,60.9,34.4,82.6,63.6c0.2,0.3,0.5,0.3,0.6,0
	c2.3-4.6,5-8.1,8.2-10.5c12.3-9.5,26.5-16.4,40.9-23.7c21.6-10.8,43.8-20.4,66.4-28.8c10.1-3.7,24.9-8.5,34.7-3.4
	c9.4,4.9,10.3,19.7,10.3,29.3c0,15.6,0.1,31.1,0.2,46.7c0,0.4,0.1,0.5,0.4,0.1c9.2-11.6,19-22,29.4-31.2
	c30.3-26.8,73.3-44.2,114.7-41.3c47.1,3.3,77.4,37.5,91.4,79.9c9.2,27.7,13.1,56.3,14.9,85.5c0,0.2,0.2,0.3,0.3,0.3
	c0.1,0,0.2-0.1,0.3-0.2c5.6-28.6,15.4-55.7,29.5-81.3c2.6-4.8,6.3-10.1,11.1-15.9c18.9-23.2,42.2-40.7,69.8-52.4
	c15.4-6.6,31.3-11.4,47.8-14.7c48.2-9.5,92.1-1.1,131.6,25.2c13.7,9.1,26.2,20.6,35.6,33.6c1.9,2.7,6,8.9,12.2,18.6
	c0.2,0.3,0.4,0.3,0.6,0c19.6-36.1,47.2-65,87.3-77.6c30.1-9.5,60.8-11.2,92.1-5.2c21,4,41,11.4,61.7,9c22.2-2.6,39.7-18.5,53.1-35.5
	c10.3-13.1,19.3-27.1,27.1-41.9c12.2-23.3,23.4-48.8,38.1-69.6c9.1-12.9,21.3-12,26.2,3.9c1.3,4.2,2.3,9.9,3.1,17.2
	c1.3,12.1,1.8,30,1.6,53.8c-0.1,16.3,0.8,39.3,2.9,69.1c0,0.3,0.2,0.5,0.5,0.6c2.6,0.3,4.5,0.5,5.7,0.5c16.6,0.2,42.8-0.6,64,1.2
	c15.8,1.3,30.6,10.7,26.1,28.9c-5,20.3-26.2,22.3-44.6,22.6c-18.3,0.3-36.7,0.6-55,0.8c-0.4,0-0.6,0.2-0.6,0.6
	c1.2,41,2.4,81.9,3.5,122.8c1.8,62.4,0.3,124.7,4.1,187c1.4,23.5,4.4,74.5,44.6,53.3c0.3-0.2,0.4-0.4,0.3-0.7
	c-5.7-18.6-4.8-39.9-1-59.1c6.6-32.3,20.8-60.6,42.9-85.1c26.5-29.4,60.1-52.5,95.9-69.3c10.9-5.1,23.9-10.6,39.1-16.5
	c8.4-3.2,16.9-7.7,25.5-13.2c24.6-16,29.2-43.4,20.1-69.8c-7.3-21.1-21.2-35.9-41.8-44.3c-14.9-6.1-33-7.3-46.8,2.4
	c-15.2,10.7-23.7,34.1-27.5,51.8c-3.3,15.3-5.3,31.7-11.5,45.8c-11.8,27-44.6,31.5-63.3,9.2c-11.8-14-16.8-30.6-15.1-49.7
	c4.1-45.2,31.8-78.4,71-98.9c34.1-17.8,74.4-27.5,113.5-26c29.1,1.1,56.1,8.7,80.4,24.9c31.5,21,42.9,58.9,47.5,95
	c4.3,33.1,6,67.6,5.1,103.5c-0.5,22.5-1.1,41.3-3.1,61.7c-3.2,32.5-5.4,59.5-6.6,81c-0.6,10.6,0.2,22.4,2.4,35.3
	c0.3,1.9,1.4,4.6,3.1,8.3c2,4.3,5.5,5.6,10.3,3.9c14.9-5.3,31.6-19.8,45.3-5.5c15.7,16.3,4,40.5-8,55
	c-16.1,19.5-37.1,33.5-60.4,41.7c-44.7,15.9-83-5.9-89.8-53.1c-0.3-1.9-0.5-3.5-0.7-4.7c-0.1-0.4-0.3-0.5-0.6-0.2
	c-2.7,3-4.9,5.2-6.7,6.5c-24.1,19.3-50,34.6-77.8,46c-32.6,13.3-75,16.3-104.6-5.7c-7.7-5.7-13.8-13.1-18.1-22.1
	c-0.2-0.4-0.4-0.4-0.7-0.1c-15.7,17.4-34.9,28.8-57.7,34.1c-43.9,10.3-87.7-9.3-101.6-53.9c-1.6-5.1-2.9-12.6-3.9-22.5
	c-1.2-11.3-1.7-24.1-1.7-36.9c0-36.9,0.4-73.9-0.3-110.8c-0.5-27.1-1.3-54.2-2.3-81.2c-1.9-52.2-1.5-93.4-1.5-140.2
	c0-0.6-0.3-0.8-0.8-0.8l-24,0.1c-0.6,0-0.9,0.3-0.8,0.9c3.2,23.4,3.5,46.8,1.2,70c-1.3,13.1-6.9,47.7-25.8,46.2
	c-13-1-17.6-16.1-20.1-26c-5.8-22.9-10.7-43.7-24.7-64.2c-18.4-26.9-47.6-35.1-78.6-30.9c-21.3,2.8-47.2,15.6-57.4,35.4
	c-7.2,14-1.6,32.4,7.6,44.4c13.2,17.4,30.8,28.2,50.3,37.4c16.1,7.6,32.2,15.1,48.4,22.7c23.3,10.9,44.6,24.5,64,40.8
	c34.1,28.7,55.1,66.4,58.5,111.2c2.3,30.5-2.3,61.8-17.7,88.5c-15.4,26.5-37,47.4-65,62.6c-24.2,13.2-49.5,19.1-76,17.9
	c-27-1.3-54.9-7-79-19.7c-7.2-3.8-15.1-9.7-22.7-14.6c-3.9-2.5-7.2-2-10,1.5c-5,6.3-19.3,29.3-29.2,16.4c-5.9-7.7-7.2-20.5-7.7-29.9
	c-0.6-10.5-0.8-21-0.6-31.5c0-0.4-0.1-0.4-0.3-0.1c-33,49.1-92.9,72.4-151.2,65.3c-43.7-5.3-82.6-22.1-112.2-54.9
	c-24.3-26.8-42.2-59.4-52.1-94.2C1208.8,583.1,1208.8,583.1,1208.8,583.4z M541.9,534.9c11.5,34.5,26.7,68,49,97.7
	c21.5,28.8,51.6,46.9,88.3,45.2c12.6-0.6,24.3-3.7,34.8-10.1c29.9-18.2,43-49.4,46.7-83.2c6-55.2-6.7-114.1-27.1-165.7
	c-24-60.5-62-121-132-130.9c-46.7-6.6-75.3,30.4-82.9,71.9c-4.7,25.4-5.3,49.8-1.7,73C522.3,467.5,530.8,501.5,541.9,534.9z
	 M1397.5,303.2c-30.4-9.3-64.9,17.7-81.8,39.5c-7.6,9.8-13.4,19.8-17.5,30.2c-1.3,3.3-4.8,14.3,2,14.4c26.8,0.5,53.6,1,80.4,1.5
	c21.9,0.4,42.2-0.8,60.9-3.6c2.6-0.4,4.5-1.6,5.4-3.8c0.6-1.4,0.7-3.3,0.2-5.9C1441.8,347.3,1428.2,312.5,1397.5,303.2z
	 M1739.2,633.5c5.6-27.2-7.8-53.2-29.4-69.1c-19.9-14.6-42.4-25-65.7-35.8c-22.2-10.3-43.5-22.1-64-35.5
	c-12-7.8-21.7-16.6-29.3-26.2c-4.6-5.9-8.2-13.2-10.9-22c-0.1-0.3-0.3-0.5-0.7-0.5l-251.6-2.4c-0.4,0-0.6,0.2-0.5,0.5
	c0.6,15.4,1.7,28.8,3.3,40.4c4.1,29.9,14.4,57.8,31.1,83.9c14.2,22.2,33,39.6,56.3,52.1c22.3,12,46.2,16.8,70.6,8.2
	c16.6-5.8,31.3-15,44-27.5c7.3-7.2,14.3-14.8,20.9-22.7c11.2-13.4,29.7-26.9,44.7-8.6c6.5,8,11.5,19.3,18.4,33.3
	c14.6,29.8,41.5,54.7,70.4,70c17.8,9.4,38.6,13.5,57.6,4.6C1720.4,668.7,1735.4,651.7,1739.2,633.5z M2201.7,467.9
	c-51.2,18.4-109.6,64.1-113.3,123.4c-1.5,24.8,9.7,53.8,37.3,58.5c24.1,4.1,47.1-7.8,63.4-24.7c19.7-20.3,22.2-46.4,21.5-73.5
	c-0.7-28.1-3.6-55.9-8.8-83.5C2201.9,467.9,2201.8,467.9,2201.7,467.9z"/>
</svg>
